<svg id="Layer_1" data-name="Layer 1" xmlns="http://www.w3.org/2000/svg" xmlns:xlink="http://www.w3.org/1999/xlink" viewBox="0 0 305 343.36"><defs><style>.cls-1{fill:#fefefe;}.cls-2{fill:#0477f5;}.cls-3{font-size:56.71px;fill:#2f2f2f;font-family:Righteous-Regular, Righteous;}.cls-4{letter-spacing:-0.02em;}.cls-5{letter-spacing:-0.02em;}</style><symbol id="New_Symbol" data-name="New Symbol" viewBox="0 0 351.3 351.3"><path class="cls-1" d="M175.59,351.21q-86,0-172.06.09c-3.12,0-3.52-.79-3.51-3.65Q.14,175.59,0,3.53C0,.41.79,0,3.65,0Q175.72.14,347.77,0c3.12,0,3.52.79,3.51,3.65q-.12,172.07,0,344.12c0,3.12-.79,3.52-3.65,3.51Q261.61,351.13,175.59,351.21Z"/><path class="cls-2" d="M162.17,314.43c4.92-15.58,9.7-30.68,14.46-45.79Q206.3,174.58,236,80.52c.9-2.83.88-4.74-1.53-6.82-3.19-2.74-6-5.93-9.48-9.49-2.39,7.46-4.63,14.29-6.79,21.14q-35.55,112.79-71,225.59c-.8,2.56-1.82,3.67-4.74,3.58-7.72-.25-15.46-.17-23.19,0a6.69,6.69,0,0,1-5.35-2.18q-38.09-38.37-76.28-76.63a8,8,0,0,1-2.56-6.14q.21-54.72.17-109.44a7.35,7.35,0,0,1,2.52-5.69q38.4-38,76.71-76.19c1.26-1.25,2.4-2.28,4.45-2.27,22.9.08,45.81.05,69.31.05-1.33,4.33-2.56,8.38-3.84,12.43q-34.9,110.71-69.93,221.4c-1,3.13-.61,5,1.72,7.16,3.28,3,6.2,6.47,9.85,10.35,3.75-11.81,7.18-22.58,10.59-33.37Q170.39,146.8,204.11,39.6c.91-2.91,2.17-3.78,5.14-3.69,7.29.24,14.59.16,21.89,0a6.77,6.77,0,0,1,5.36,2.15q38.07,38.38,76.28,76.63a8.37,8.37,0,0,1,2.58,6.56q-.19,53.83-.15,107.68a10.26,10.26,0,0,1-3.36,8q-37.49,37.1-74.76,74.44a9.21,9.21,0,0,1-7.21,3.08C207.56,314.37,185.25,314.43,162.17,314.43Z"/><path class="cls-1" d="M151.82,61.41c-20.17,63.92-40.1,127.07-60.08,190.35-10-9.86-19.72-19.48-29.48-29.06-1.12-1.11-.84-2.41-.84-3.68q.13-44.19.26-88.38A6,6,0,0,1,63.61,126q31.5-31.29,63-62.65a5.39,5.39,0,0,1,4.12-2C137.52,61.48,144.37,61.41,151.82,61.41Z"/><path class="cls-1" d="M198.64,289c20.12-63.73,40.05-126.88,60.12-190.44,7.31,7.22,13.83,14.54,21.27,20.75,7.11,6,9.42,12.64,9.16,21.86-.73,25.51-.45,51-.43,76.57a10.29,10.29,0,0,1-3.29,8Q255.1,255.75,225,286a9.37,9.37,0,0,1-7.65,3.09C211.38,288.84,205.4,289,198.64,289Z"/></symbol></defs><title>fontagon_2_log</title><use width="351.3" height="351.3" transform="translate(6 0) scale(0.84)" xlink:href="#New_Symbol"/><text class="cls-3" transform="translate(0 328.8)"><tspan class="cls-4">F</tspan><tspan x="31.01" y="0">ON</tspan><tspan class="cls-5" x="114.25" y="0">T</tspan><tspan x="145.84" y="0">AGON</tspan></text></svg>