<svg id="Layer_1" data-name="Layer 1" xmlns="http://www.w3.org/2000/svg" viewBox="0 0 626.98 248.75"><defs><style>.cls-1{font-size:64.52px;fill:#2f2f2f;font-family:Righteous-Regular, Righteous;}.cls-2{letter-spacing:-0.02em;}.cls-3{letter-spacing:-0.02em;}.cls-4{fill:#fefefe;}.cls-5{fill:#0477f5;}</style></defs><title>fontagon-logo-inline</title><text class="cls-1" transform="translate(279.98 145.99)"><tspan class="cls-2">F</tspan><tspan x="35.28" y="0">ON</tspan><tspan class="cls-3" x="129.98" y="0">T</tspan><tspan x="165.92" y="0">AGON</tspan></text><path class="cls-4" d="M151.35,275.92q-60.91,0-121.83.07c-2.22,0-2.49-.56-2.49-2.59q.09-121.83,0-243.66c0-2.21.55-2.49,2.58-2.49q121.83.09,243.66,0c2.21,0,2.49.55,2.49,2.58q-.09,121.83,0,243.66c0,2.21-.55,2.5-2.58,2.49Q212.27,275.86,151.35,275.92Z" transform="translate(-27.02 -27.24)"/><path class="cls-5" d="M52.62,151.61c0-12.81,0-25.62,0-38.43a5.53,5.53,0,0,1,1.78-4.34q27.21-26.93,54.31-54a4.85,4.85,0,0,1,3.79-1.57c15.29,0,30.59.1,45.88,0,2.57,0,2.46.78,1.85,2.71Q136.56,130.68,113,205.38c-1.49,4.72-3,9.45-4.53,14.13a3.26,3.26,0,0,0,1,4,69.43,69.43,0,0,1,5.69,5.69c1.48,1.66,1.94,1.45,2.6-.66,5.45-17.51,11-35,16.54-52.46q19-60.1,37.85-120.25c.66-2.08,1.58-2.65,3.66-2.58,5.17.16,10.34.11,15.5,0a4.78,4.78,0,0,1,3.79,1.55q27,27.16,54,54.26a5.62,5.62,0,0,1,1.82,4.33q-.13,38.44-.11,76.87a6.64,6.64,0,0,1-2.18,5.14Q222,221.85,195.5,248.38a6.56,6.56,0,0,1-5.11,2.17c-14.88-.09-29.76-.15-44.63,0-3.22,0-3.06-.89-2.28-3.36q25.64-81,51.18-162.08c.7-2.18.82-3.78-1.21-5.33a32.78,32.78,0,0,1-4.61-4.59c-1.56-1.81-2.13-1.49-2.81.71-3.91,12.7-8,25.35-12,38q-21.13,67-42.22,134.09c-.57,1.82-1.32,2.57-3.37,2.51-5.47-.17-10.95-.12-16.43,0a4.75,4.75,0,0,1-3.78-1.56q-26.85-27.06-53.79-54a6.27,6.27,0,0,1-2-4.89c.1-12.81,0-25.62,0-38.44Z" transform="translate(-27.02 -27.24)"/><path class="cls-4" d="M71.34,151.56c0-10.12,0-20.24,0-30.36a5.81,5.81,0,0,1,1.86-4.62q21.91-21.67,43.69-43.49a5.41,5.41,0,0,1,4.33-1.79c3.61.14,7.24.2,10.84,0,2.5-.12,3.13.36,2.28,3-4.65,14.3-9.12,28.65-13.64,43Q107,160.45,93.44,203.61c-.72,2.28-1.08,2.85-3,.8-5.77-6-11.73-11.93-17.68-17.8a5.14,5.14,0,0,1-1.64-4.07c.07-10.33,0-20.65,0-31Z" transform="translate(-27.02 -27.24)"/><path class="cls-4" d="M232.06,152.21c0,10.12,0,20.24,0,30.36a6.23,6.23,0,0,1-2.05,4.87q-21.71,21.47-43.26,43.06a5.94,5.94,0,0,1-4.85,2.05c-3.5-.18-7-.21-10.53,0-2.49.12-3.13-.35-2.28-3,4.76-14.59,9.35-29.23,14-43.86q13.44-42.57,26.82-85.15c.71-2.27,1.1-3.18,3.23-.94,5.7,6,11.57,11.8,17.47,17.59a5.42,5.42,0,0,1,1.69,4.35c-.07,10.23,0,20.45,0,30.68Z" transform="translate(-27.02 -27.24)"/></svg>